<svg width="617" height="507" viewBox="0 0 617 507" fill="none" xmlns="http://www.w3.org/2000/svg">
<path opacity="0.4" d="M499.386 141.355C498.305 140.912 497.594 139.866 497.598 138.7C497.598 62.099 435.422 0 358.722 0C304.956 0 258.325 30.5181 235.249 75.1549C232.823 79.8453 227.821 82.6252 222.552 82.2293C217.369 81.8377 212.134 81.6397 206.847 81.6397C92.159 81.6354 -0.728144 174.864 0.00430211 289.577C0.73244 403.672 93.3869 495.239 207.627 494.821C224.667 494.757 241.225 492.635 257.059 488.694C291.483 480.118 327.744 481.766 360.98 494.163C381.372 501.771 403.427 505.971 426.452 506.074C530.907 506.543 616.405 422.055 616.996 317.729C617.444 238.116 568.719 169.816 499.386 141.355Z" fill="url(#paint0_linear_303_134)"/>
<path d="M345.598 446.45C362.987 444.827 394.474 437.017 406.275 420.876C417.171 405.978 403.867 385.641 411.923 371.019C419.985 356.397 465.06 348.135 477.775 331.344C492.85 311.433 460.252 292.392 476.094 278.897C491.937 265.407 544.539 252.131 549.649 235.043C554.759 217.956 533.932 217.125 553.471 186.043C570.02 159.725 592.161 125.218 574.001 109.012C554.643 91.7392 528.675 118.311 514.703 139.504C496.702 166.804 481.609 135.761 462.156 147.767C444.565 158.619 442.738 224.118 429.145 236.261C415.551 248.405 391.286 237.049 372.225 258.418C353.164 279.788 376.753 316.477 366.607 332.79C356.46 349.099 330.648 340.932 316.128 364.083C301.608 387.229 345.594 446.445 345.594 446.445L345.598 446.45Z" fill="url(#paint1_linear_303_134)"/>
<path d="M32.5465 274.968C19.9139 339.98 153.267 368.377 153.37 381.041C153.473 393.706 85.3386 386.605 99.7419 420.626C113.085 452.147 219.312 462.487 296.016 424.736C298.235 423.643 351.208 327.148 309.807 272.119C268.407 217.095 258.304 313.383 239.566 311.283C220.824 309.178 259.333 190.424 220.686 165.978C180.638 140.649 170.16 225.516 151.379 212.908C133.59 200.967 121.935 80.9469 73.8823 97.5055C72.1416 98.1036 70.3536 98.8825 68.5139 99.855L68.4923 99.8636C67.5186 100.38 66.532 100.948 65.5281 101.572C10.4007 135.864 119.393 260.32 95.2568 265.682C71.1248 271.044 38.9489 242.019 32.5465 274.964V274.968Z" fill="url(#paint2_linear_303_134)"/>
<path d="M370.721 440.451C378.718 444.939 394.651 450.963 404.573 447.517C413.737 444.337 414.073 431.582 421.928 427.675C429.782 423.767 451.721 433.652 462.234 430.196C474.698 426.095 466.323 408.147 477.197 407.05C488.076 405.952 514.763 415.918 522.079 410.066C529.395 404.214 520.653 397.639 538.391 390.048C553.411 383.623 573.299 375.331 570.304 362.908C567.112 349.671 547.952 353.398 535.578 358.377C519.636 364.793 522.407 346.883 510.416 346.263C499.571 345.699 479.188 373.438 469.683 374.625C460.179 375.813 453.1 363.665 438.472 367.207C423.849 370.748 423.057 393.628 413.798 397.643C404.539 401.658 395.835 390.427 382.639 396.089C369.442 401.752 370.721 440.451 370.721 440.451Z" fill="url(#paint3_linear_303_134)"/>
<path d="M264.999 434.689C264.999 434.689 208.687 339.124 159.871 288.971C111.056 238.813 73.1757 229.269 73.1757 229.269C73.1757 229.269 96.7001 251.219 117.566 283.579C138.432 315.939 152.87 352.438 178.82 382.345C218.075 427.58 264.999 434.689 264.999 434.689Z" fill="url(#paint4_linear_303_134)"/>
<path d="M246.559 436.909C246.559 436.909 197.752 376.497 158.799 346.758C119.845 317.023 92.6329 314.291 92.6329 314.291C92.6329 314.291 111.177 327.084 128.949 347.356C146.722 367.628 160.466 391.429 181.505 409.481C213.331 436.789 246.559 436.905 246.559 436.905V436.909Z" fill="url(#paint5_linear_303_134)"/>
<path d="M351.518 453.623H236.291V233.464H306.705L351.518 453.623Z" fill="url(#paint6_linear_303_134)"/>
<path d="M462.863 246.907C462.958 233.378 448.735 224.806 440.825 184.86C439.326 177.291 438.261 169.562 436.611 161.902C415.262 62.8392 340.773 24.9885 260.178 52.7956C184.314 78.9718 163.4 149.268 206.227 243.327C246.908 332.669 335.827 381.704 387.068 363.166C419.834 351.311 438.115 313.778 443.307 266.134C452.311 263.208 462.785 257.523 462.863 246.907Z" fill="url(#paint7_linear_303_134)"/>
<path d="M218.174 113.612C221.44 107.472 218.377 98.3403 229.152 89.6049C239.928 80.8695 247.127 85.3749 257.033 80.6113C266.942 75.8477 268.984 65.4727 283.513 62.056C296.318 59.0438 307.558 66.0795 318.623 64.9779C329.683 63.8719 336.094 59.4182 347.317 61.8667C357.244 64.0312 361.178 73.141 366.826 76.6825C372.496 80.2412 384.177 77.9992 390.058 87.6599C394.879 95.582 390.928 104.933 392.44 113.225C393.858 121.005 400.924 125.584 397.537 135.722C394.491 144.845 377.447 143.932 372.47 150.008C367.494 156.085 368.218 170.44 358.084 181.439C347.951 192.438 331.583 187.859 322.095 193.445C312.608 199.03 314.112 212.77 307.248 218.739C300.536 224.578 287.644 223.098 281.246 227.62C274.848 232.143 268.144 250.074 253.84 248.732C240.772 247.505 237.644 230.714 232.595 227.362C228.066 224.359 220.324 226.416 214.262 219.81C208.062 213.054 210.69 204.099 208.743 199.082C206.817 194.116 195.847 190.729 195.231 175.681C194.598 160.284 203.637 157.272 203.973 149.841C204.309 142.409 199.505 136.604 202.849 129.052C207.411 118.75 215.559 118.518 218.174 113.604V113.612Z" fill="#D1D3E1"/>
<path d="M293.896 143.597L290.342 146.364C287.64 144.135 284.663 142.353 281.522 141.036L282.138 136.083C282.298 134.814 281.393 133.656 280.122 133.502L266.697 131.84C265.426 131.681 264.267 132.585 264.111 133.854L263.534 138.515C260.225 138.906 256.946 139.767 253.805 141.11L250.479 136.849C249.691 135.842 248.235 135.662 247.226 136.445L236.559 144.754C235.55 145.542 235.369 146.996 236.154 148.003L239.48 152.263C237.532 154.819 235.968 157.595 234.801 160.508L228.631 159.747C227.36 159.587 226.201 160.491 226.046 161.76L224.383 175.169C224.223 176.439 225.128 177.596 226.399 177.751L232.569 178.513C232.965 181.43 233.728 184.322 234.865 187.106L229.398 191.366C228.39 192.154 228.209 193.608 228.993 194.615L237.312 205.27C238.101 206.277 239.557 206.457 240.565 205.674L245.796 201.599C248.101 203.411 250.591 204.908 253.207 206.074L252.323 213.183C252.164 214.453 253.069 215.61 254.34 215.765L267.765 217.426C269.036 217.585 270.195 216.682 270.35 215.412L271.143 209.022C274.077 208.742 276.99 208.101 279.816 207.081L283.987 212.422C284.775 213.429 286.231 213.609 287.239 212.826L297.907 204.517C298.916 203.729 299.096 202.275 298.312 201.268L294.775 196.737C296.865 194.297 298.575 191.62 299.902 188.793L304.633 189.378C306.567 189.619 308.33 188.246 308.571 186.314L310.083 174.106C310.243 172.837 309.338 171.679 308.067 171.524L303.146 170.918C302.884 167.6 302.156 164.299 300.945 161.124L305.072 157.909C306.081 157.122 306.262 155.667 305.477 154.66L297.158 144.006C296.369 142.999 294.913 142.818 293.905 143.601L293.896 143.597ZM278.61 187.644C270.915 193.638 259.812 192.261 253.814 184.576C247.812 176.89 249.191 165.801 256.886 159.811C264.581 153.817 275.684 155.194 281.682 162.879C287.683 170.565 286.305 181.654 278.61 187.644Z" fill="#A0CED8"/>
<path d="M338.752 89.9922L337.563 93.1206C334.986 92.7462 332.41 92.7591 329.902 93.1335L328.377 89.7469C327.985 88.8776 326.968 88.4947 326.098 88.882L316.925 93.0001C316.055 93.3917 315.671 94.4072 316.059 95.2765L317.49 98.4608C315.538 99.9841 313.789 101.796 312.311 103.857L308.549 102.433C307.658 102.097 306.662 102.54 306.326 103.431L302.754 112.82C302.418 113.711 302.862 114.705 303.754 115.041L307.515 116.465C307.265 118.841 307.343 121.207 307.726 123.505L303.513 125.399C302.642 125.79 302.259 126.806 302.647 127.675L306.77 136.836C307.162 137.706 308.179 138.089 309.049 137.701L313.263 135.808C314.642 137.512 316.24 139.053 318.041 140.382L316.21 145.193C315.874 146.084 316.318 147.078 317.21 147.414L326.611 150.981C327.503 151.317 328.498 150.873 328.834 149.983L330.583 145.378C332.746 145.641 334.909 145.632 337.02 145.37L339.204 150.224C339.597 151.093 340.613 151.476 341.484 151.089L350.656 146.97C351.527 146.579 351.91 145.563 351.522 144.694L349.558 140.326C351.316 139.018 352.918 137.486 354.319 135.752L359.028 137.538C359.92 137.874 360.915 137.43 361.251 136.54L364.823 127.15C365.159 126.259 364.715 125.265 363.823 124.93L359.825 123.411C360.208 121.057 360.264 118.694 360.015 116.388L363.246 114.938C364.569 114.344 365.159 112.795 364.564 111.474L360.812 103.134C360.42 102.265 359.403 101.882 358.532 102.269L355.172 103.78C353.724 101.77 351.988 99.9583 349.989 98.4049L351.367 94.773C351.703 93.8822 351.26 92.8882 350.368 92.5526L340.967 88.9852C340.075 88.6496 339.079 89.0928 338.743 89.9836L338.752 89.9922ZM346.051 123.867C343.474 130.64 335.891 134.044 329.11 131.47C322.328 128.897 318.92 121.324 321.496 114.55C324.073 107.777 331.656 104.373 338.438 106.947C345.219 109.52 348.627 117.094 346.051 123.867Z" fill="#A0CED8"/>
<path d="M290.923 88.8561L288.997 89.8932C287.886 88.6109 286.606 87.5179 285.21 86.6314L285.904 84.312C286.081 83.7181 285.744 83.0899 285.15 82.9135L278.864 81.033C278.269 80.8565 277.64 81.1922 277.464 81.786L276.809 83.9677C275.193 83.886 273.556 84.0366 271.944 84.4239L270.699 82.1174C270.406 81.5709 269.721 81.3686 269.174 81.6612L263.396 84.7724C262.849 85.065 262.647 85.7492 262.94 86.2957L264.185 88.6022C263.047 89.6694 262.074 90.87 261.281 92.1696L258.39 91.3046C257.795 91.1282 257.166 91.4639 256.989 92.0577L255.107 98.336C254.93 98.9299 255.266 99.5581 255.861 99.7345L258.747 100.599C258.7 102.028 258.829 103.47 259.148 104.898L256.188 106.495C255.641 106.787 255.438 107.472 255.731 108.018L258.846 113.789C259.139 114.335 259.824 114.537 260.372 114.245L263.202 112.717C264.159 113.771 265.227 114.688 266.382 115.458L265.387 118.789C265.21 119.383 265.546 120.011 266.141 120.188L272.427 122.068C273.021 122.244 273.65 121.909 273.827 121.315L274.723 118.324C276.149 118.428 277.597 118.354 279.028 118.096L280.587 120.988C280.88 121.534 281.565 121.737 282.112 121.444L287.89 118.333C288.437 118.04 288.64 117.356 288.347 116.81L287.02 114.357C288.218 113.358 289.252 112.214 290.113 110.97L292.328 111.633C293.233 111.904 294.189 111.388 294.461 110.484L296.175 104.765C296.352 104.171 296.016 103.543 295.421 103.366L293.116 102.678C293.259 101.069 293.177 99.4333 292.858 97.8153L295.09 96.6104C295.637 96.3178 295.839 95.6336 295.546 95.0871L292.431 89.3166C292.138 88.7701 291.453 88.5678 290.906 88.8604L290.923 88.8561ZM280.044 108.689C275.878 110.936 270.678 109.382 268.433 105.221C266.184 101.06 267.739 95.866 271.906 93.624C276.072 91.3778 281.272 92.9312 283.517 97.0924C285.766 101.254 284.211 106.447 280.044 108.689Z" fill="#A0CED8"/>
<path d="M262.737 165.563L259.825 164.866L261.16 159.299L262.939 159.729L262.737 165.563Z" fill="#E0BA90"/>
<path d="M266.903 157.698C266.847 160.099 265.93 162.316 264.43 162.483C263.021 162.643 261.074 160.865 260.587 158.361C260.074 155.723 261.031 154.075 263.108 153.873C265.314 153.658 266.968 155.065 266.903 157.698Z" fill="#E7C8AA"/>
<path d="M260.988 160.026L261.324 159.975C261.324 159.975 261.462 158.864 261.729 158.636C262.069 158.339 263.332 158.684 263.332 158.684C263.332 158.684 263.672 157.487 264.228 157.281C264.723 157.096 266.546 157.324 267.145 157.845C267.145 157.845 267.731 156.76 267.459 155.594C267.162 154.307 266.21 153.696 264.93 153.322C263.65 152.948 262.216 152.84 261.582 154.217C261.582 154.217 260.419 154.191 260.049 155.719C259.678 157.246 260.979 160.022 260.979 160.022L260.988 160.026Z" fill="#0B0D3F"/>
<path d="M262.836 158.387C262.918 158.808 262.694 159.208 262.341 159.273C261.987 159.337 261.634 159.049 261.557 158.628C261.475 158.206 261.699 157.806 262.052 157.741C262.405 157.677 262.758 157.965 262.836 158.387Z" fill="#E7C8AA"/>
<path d="M278.144 205.881L276.774 190.712C276.727 190.204 276.412 189.735 275.917 189.516L275.727 189.434L260.432 182.7L257.998 181.628L256.042 186.912L258.592 187.678L273.78 192.244L276.869 206.074L277.011 206.707L278.205 206.522L278.144 205.877V205.881Z" fill="#E0BA90"/>
<path d="M275.331 190.278L275.133 190.196L260.234 183.883L257.782 182.846L255.908 188.173L258.472 188.892L268.131 191.607L260.109 193.526L259.48 193.677L259.682 194.865L260.329 194.8L274.866 193.341C275.426 193.285 275.943 192.933 276.18 192.377C276.524 191.564 276.145 190.626 275.331 190.282V190.278Z" fill="#E7C8AA"/>
<path d="M263.28 182.076C265.619 184.95 275.581 187.029 277.235 189.464C278.941 191.977 278.286 203.346 278.286 203.346L275.805 203.729C275.805 203.729 273.9 192.636 273.349 192.098C272.793 191.551 259.049 190.407 255.994 187.696C253.465 185.449 255.572 181.043 255.572 181.043L263.28 182.08V182.076Z" fill="url(#paint8_linear_303_134)"/>
<path d="M262.056 181.912C263.521 185.174 276.636 187.803 276.903 191.099C277.192 194.697 262.242 195.05 262.242 195.05L261.927 192.597C261.927 192.597 267.597 191.874 267.554 191.568C267.511 191.284 257.7 190.755 254.775 187.528C252.504 185.023 254.353 180.875 254.353 180.875L262.061 181.912H262.056Z" fill="url(#paint9_linear_303_134)"/>
<path d="M258.989 166.033L270.191 168.405L269.071 168.985L272.724 161.562L273.06 160.878L274.409 161.489L274.116 162.195L270.932 169.829C270.755 170.255 270.307 170.492 269.868 170.418L269.812 170.41L258.515 168.555L258.989 166.038V166.033Z" fill="#E0BA90"/>
<path d="M257.778 169.764C260.208 170.952 267.347 171.976 270.613 170.324C272.552 169.343 273.711 163.908 273.711 163.908L271.837 162.871C271.837 162.871 270.548 166.86 268.006 166.842C265.464 166.821 259.588 164.975 258.161 165.883C256.903 166.683 256.692 169.235 257.782 169.769L257.778 169.764Z" fill="url(#paint10_linear_303_134)"/>
<path d="M259.997 164.261C259.997 164.261 261.371 165.836 263.052 165.134C263.052 165.134 262.819 170.887 263.202 173.297C263.586 175.707 264.814 182.076 264.814 182.076L253.495 180.552C253.892 175.324 256.649 169.695 260.001 164.261H259.997Z" fill="#96D1F1"/>
<path d="M259.652 163.688C259.652 163.688 253.151 171.042 253.09 179.812C253.09 179.812 252.397 181.443 258.566 182.037C264.736 182.631 265.202 181.83 265.202 181.83C263.883 176.942 263.077 171.503 263.177 165.1C263.177 165.1 260.872 164.876 259.648 163.688H259.652Z" fill="url(#paint11_linear_303_134)"/>
<path d="M274.732 158.073C275.214 158.279 275.499 159.251 275.188 160.327C274.904 161.317 274.12 161.756 273.62 161.575C272.505 161.179 273.982 157.754 274.732 158.073Z" fill="#E0BA90"/>
<path d="M273.495 158.447C273.263 158.447 272.961 158.998 272.875 159.789C272.793 160.516 273.021 161.028 273.254 161.05C273.771 161.106 273.853 158.447 273.495 158.443V158.447Z" fill="#E0BA90"/>
<path d="M262.487 164.863C262.487 164.863 261.94 169.876 262.267 175.427C262.595 180.978 263.719 184.757 263.719 184.757C263.719 184.757 252.983 183.973 251.483 181.099C250.135 178.508 256.451 165.934 259.299 163.37L262.487 164.863Z" fill="url(#paint12_linear_303_134)"/>
<path d="M259.618 200.717L259.687 199.572L260.803 195.286H260.768C260.768 195.286 260.057 195.321 259.829 194.486C259.657 193.871 259.777 193.445 259.855 193.26C259.889 193.217 259.906 193.178 259.902 193.161C259.872 192.885 259.394 192.717 258.842 192.782C258.661 192.803 258.493 192.847 258.351 192.907L257.584 192.997L258.532 201.169L259.312 201.078C259.493 201.057 259.626 200.902 259.622 200.721L259.618 200.717Z" fill="#0B0D3F"/>
<path d="M283.521 208.08L282.427 207.735L278.532 205.618V205.653C278.532 205.653 278.386 206.35 277.519 206.371C276.878 206.389 276.494 206.169 276.335 206.049C276.3 206.006 276.27 205.98 276.248 205.98C275.973 205.945 275.693 206.363 275.624 206.914C275.602 207.094 275.602 207.266 275.624 207.421L275.525 208.187L283.694 209.25L283.793 208.476C283.814 208.295 283.698 208.127 283.521 208.088V208.08Z" fill="#0B0D3F"/>
<path d="M261.389 167.897L260.014 179.442L259.333 178.384L267.196 181.396L267.912 181.671L267.425 183.07L266.697 182.842L258.666 180.316C258.222 180.178 257.95 179.752 257.98 179.309V179.253L258.838 167.656L258.933 166.378L261.544 166.627L261.393 167.901L261.389 167.897Z" fill="#E7C8AA"/>
<path d="M270.768 183.216C270.595 183.711 269.639 184.059 268.545 183.818C267.537 183.599 267.05 182.846 267.192 182.334C267.515 181.194 271.035 182.446 270.763 183.212L270.768 183.216Z" fill="#E7C8AA"/>
<path d="M270.307 182.011C270.294 181.779 269.721 181.516 268.924 181.482C268.192 181.452 267.696 181.706 267.688 181.942C267.666 182.463 270.324 182.368 270.307 182.011Z" fill="#E7C8AA"/>
<path d="M257.515 167.01C256.365 169.506 256.167 176.86 258.14 180.01C259.312 181.882 264.909 182.583 264.909 182.583L265.787 180.595C265.787 180.595 261.643 180.002 261.432 177.428C261.22 174.855 262.591 167.983 261.539 166.623C260.613 165.422 258.136 165.663 257.515 167.01Z" fill="url(#paint13_linear_303_134)"/>
<path d="M269.622 101.249L268.618 101.714L267.731 99.7948L268.347 99.5151L269.622 101.249Z" fill="#E0BA90"/>
<path d="M269.027 98.0216C269.561 98.7315 269.803 99.5834 269.406 99.975C269.036 100.341 268.062 100.272 267.347 99.6609C266.593 99.0155 266.494 98.3185 267.05 97.785C267.64 97.2171 268.441 97.2472 269.027 98.0259V98.0216Z" fill="#E7C8AA"/>
<path d="M267.847 100.044L267.933 99.9535C267.933 99.9535 267.718 99.6007 267.743 99.4716C267.774 99.3081 268.217 99.1188 268.217 99.1188C268.217 99.1188 268.041 98.6971 268.157 98.5078C268.26 98.34 268.838 97.9915 269.131 98.0044C269.131 98.0044 269.053 97.557 268.704 97.2816C268.325 96.9761 267.907 97.0191 267.451 97.1998C266.994 97.3849 266.554 97.6817 266.688 98.2238C266.688 98.2238 266.343 98.482 266.589 99.0069C266.834 99.5318 267.847 100.04 267.847 100.04V100.044Z" fill="#0B0D3F"/>
<path d="M268.006 99.1493C268.127 99.2526 268.153 99.4204 268.067 99.5193C267.98 99.6183 267.812 99.614 267.692 99.5107C267.571 99.4075 267.545 99.2397 267.632 99.1407C267.718 99.0417 267.886 99.046 268.006 99.1493Z" fill="#E7C8AA"/>
<path d="M283.327 109.408L279.454 105.329C279.325 105.191 279.127 105.126 278.933 105.178L278.86 105.195L272.888 106.74L271.936 106.985L272.582 108.965L273.495 108.603L278.941 106.452L283.004 109.752L283.19 109.903L283.491 109.576L283.327 109.404V109.408Z" fill="#E0BA90"/>
<path d="M278.937 105.531L278.86 105.552L273.095 107.132L272.147 107.39L272.823 109.361L273.732 108.982L277.153 107.562L275.271 109.95L275.124 110.14L275.456 110.437L275.628 110.269L279.506 106.521C279.657 106.374 279.726 106.155 279.665 105.94C279.579 105.626 279.256 105.441 278.941 105.527L278.937 105.531Z" fill="#E7C8AA"/>
<path d="M273.564 105.91C274.9 106.207 278.265 104.533 279.299 104.86C280.368 105.195 282.785 108.642 282.785 108.642L282.156 109.322C282.156 109.322 279.062 106.542 278.778 106.512C278.493 106.482 274.245 109.292 272.741 109.206C271.492 109.133 271.091 107.377 271.091 107.377L273.56 105.914L273.564 105.91Z" fill="url(#paint14_linear_303_134)"/>
<path d="M273.172 106.142C274.344 106.753 278.747 104.515 279.579 105.41C280.488 106.387 276.236 109.907 276.236 109.907L275.581 109.27C275.581 109.27 277.059 107.764 276.977 107.687C276.899 107.614 273.935 109.705 272.349 109.438C271.117 109.232 270.699 107.609 270.699 107.609L273.168 106.146L273.172 106.142Z" fill="url(#paint15_linear_303_134)"/>
<path d="M268.644 102.243L272.431 100.367L272.241 100.793L271.599 97.8067L271.539 97.5313L272.069 97.3979L272.146 97.669L272.973 100.608C273.021 100.771 272.943 100.943 272.801 101.021L272.784 101.029L269.088 103.073L268.648 102.234L268.644 102.243Z" fill="#E0BA90"/>
<path d="M269.148 103.602C270.126 103.391 272.426 102.053 272.991 100.831C273.327 100.104 272.418 98.2672 272.418 98.2672L271.638 98.3962C271.638 98.3962 272.181 99.8462 271.44 100.423C270.699 100.999 268.575 101.804 268.368 102.393C268.187 102.914 268.709 103.701 269.148 103.607V103.602Z" fill="url(#paint16_linear_303_134)"/>
<path d="M268.532 101.499C268.532 101.499 269.29 101.641 269.618 101.056C269.618 101.056 270.867 102.777 271.531 103.388C272.194 103.999 274.008 105.561 274.008 105.561L270.38 107.708C269.299 106.103 268.804 103.844 268.528 101.503L268.532 101.499Z" fill="#96D1F1"/>
<path d="M268.299 101.413C268.299 101.413 268.101 105.027 270.096 107.584C270.096 107.584 270.268 108.216 272.194 106.977C274.12 105.737 274.068 105.402 274.068 105.402C272.565 104.287 271.087 102.897 269.648 101.017C269.648 101.017 268.928 101.477 268.304 101.413H268.299Z" fill="url(#paint17_linear_303_134)"/>
<path d="M271.38 96.3393C271.565 96.2877 271.871 96.5071 272.03 96.8858C272.177 97.2386 272.048 97.544 271.862 97.6086C271.449 97.7506 271.091 96.4168 271.38 96.3393Z" fill="#E0BA90"/>
<path d="M271.108 96.7309C271.04 96.7826 271.083 97.0149 271.238 97.2601C271.38 97.4882 271.565 97.5871 271.638 97.5398C271.802 97.4365 271.216 96.6492 271.113 96.7309H271.108Z" fill="#E0BA90"/>
<path d="M269.389 101.103C269.389 101.103 270.38 102.678 271.746 104.214C273.112 105.746 274.305 106.585 274.305 106.585C274.305 106.585 271.018 108.814 269.924 108.324C268.937 107.88 267.886 102.794 268.123 101.4L269.389 101.103Z" fill="url(#paint18_linear_303_134)"/>
<path d="M276.774 112.145L276.533 111.796L275.874 110.299L275.865 110.307C275.865 110.307 275.667 110.479 275.408 110.29C275.219 110.152 275.154 109.998 275.137 109.929C275.137 109.907 275.137 109.894 275.128 109.89C275.055 109.817 274.878 109.877 274.736 110.023C274.689 110.071 274.65 110.122 274.624 110.17L274.422 110.372L276.571 112.523L276.778 112.321C276.826 112.274 276.83 112.196 276.787 112.145H276.774Z" fill="#0B0D3F"/>
<path d="M285.387 108.814L284.99 108.965L283.375 109.24V109.249C283.375 109.249 283.5 109.481 283.254 109.688C283.073 109.838 282.91 109.864 282.836 109.864C282.815 109.864 282.802 109.86 282.798 109.864C282.711 109.916 282.724 110.101 282.832 110.277C282.866 110.333 282.905 110.385 282.948 110.423L283.095 110.669L285.705 109.107L285.559 108.857C285.524 108.801 285.451 108.78 285.391 108.806L285.387 108.814Z" fill="#0B0D3F"/>
<path d="M269.768 102.235L272.017 105.892L271.578 105.741L274.546 104.816L274.817 104.73L274.998 105.246L274.735 105.345L271.832 106.451C271.672 106.511 271.496 106.451 271.401 106.318L271.388 106.301L268.976 102.747L268.709 102.355L269.523 101.83L269.773 102.235H269.768Z" fill="#E7C8AA"/>
<path d="M275.994 104.528C276.059 104.713 275.861 105.032 275.49 105.212C275.146 105.38 274.835 105.273 274.758 105.092C274.59 104.687 275.895 104.244 275.994 104.528Z" fill="#E7C8AA"/>
<path d="M275.585 104.283C275.529 104.218 275.301 104.274 275.064 104.446C274.844 104.606 274.762 104.791 274.809 104.864C274.921 105.019 275.671 104.386 275.585 104.287V104.283Z" fill="#E7C8AA"/>
<path d="M268.442 102.863C268.683 103.848 270.307 106.025 271.604 106.486C272.37 106.761 274.154 105.685 274.154 105.685L273.951 104.906C273.951 104.906 272.616 105.681 271.965 104.984C271.315 104.287 270.135 101.985 269.519 101.83C268.976 101.697 268.312 102.329 268.442 102.863Z" fill="url(#paint19_linear_303_134)"/>
<path d="M336.357 113.779L338.61 113.659L338.377 109.356L337.003 109.434L336.357 113.779Z" fill="#E0BA90"/>
<path d="M334.344 107.39C334.06 109.175 334.435 110.939 335.525 111.27C336.546 111.58 338.23 110.526 338.932 108.741C339.669 106.856 339.186 105.505 337.679 105.075C336.076 104.614 334.659 105.432 334.344 107.394V107.39Z" fill="#E7C8AA"/>
<path d="M338.407 109.919L338.165 109.833C338.165 109.833 338.213 108.994 338.049 108.788C337.838 108.525 336.856 108.603 336.856 108.603C336.856 108.603 336.77 107.673 336.382 107.441C336.042 107.239 334.663 107.161 334.142 107.463C334.142 107.463 333.858 106.581 334.215 105.754C334.611 104.842 335.395 104.52 336.395 104.416C337.394 104.313 338.471 104.429 338.751 105.535C338.751 105.535 339.617 105.677 339.682 106.856C339.746 108.035 338.407 109.915 338.407 109.915V109.919Z" fill="#0B0D3F"/>
<path d="M337.261 108.453C337.145 108.754 337.253 109.081 337.507 109.176C337.761 109.274 338.058 109.107 338.174 108.801C338.291 108.5 338.183 108.173 337.929 108.078C337.675 107.979 337.378 108.147 337.261 108.453Z" fill="#E7C8AA"/>
<path d="M319.454 141.54L322.535 130.494C322.638 130.124 322.935 129.822 323.332 129.728L323.483 129.693L335.723 126.789L337.675 126.324L338.403 130.502L336.412 130.722L324.543 132.038L320.372 141.863L320.182 142.31L319.325 142.009L319.454 141.54Z" fill="#E0BA90"/>
<path d="M323.664 130.369L323.819 130.334L335.715 127.684L337.671 127.249L338.33 131.449L336.335 131.634L328.812 132.331L334.491 134.84L334.939 135.038L334.629 135.89L334.159 135.752L323.59 132.697C323.181 132.576 322.849 132.245 322.75 131.802C322.604 131.152 323.013 130.511 323.664 130.365V130.369Z" fill="#E7C8AA"/>
<path d="M333.707 125.937C331.583 127.748 323.922 127.933 322.367 129.508C320.76 131.135 319.696 139.646 319.696 139.646L321.479 140.27C321.479 140.27 324.4 132.314 324.883 131.991C325.366 131.664 335.702 132.68 338.334 131.092C340.514 129.775 339.553 126.221 339.553 126.221L333.703 125.941L333.707 125.937Z" fill="url(#paint20_linear_303_134)"/>
<path d="M334.633 125.98C333.104 128.196 323.035 128.359 322.388 130.765C321.682 133.39 332.707 135.683 332.707 135.683L333.276 133.91C333.276 133.91 329.174 132.602 329.252 132.383C329.321 132.176 336.658 133.123 339.265 131.13C341.29 129.586 340.484 126.259 340.484 126.259L334.633 125.98Z" fill="url(#paint21_linear_303_134)"/>
<path d="M339.067 114.636L330.45 114.869L331.199 115.45L329.506 109.455L329.351 108.9L328.269 109.171L328.39 109.735L329.708 115.82C329.782 116.16 330.083 116.396 330.415 116.401H330.458L339.079 116.564L339.071 114.636H339.067Z" fill="#E0BA90"/>
<path d="M339.459 117.567C337.498 118.113 332.074 117.903 329.881 116.237C328.58 115.247 328.463 111.065 328.463 111.065L329.993 110.553C329.993 110.553 330.402 113.681 332.289 114.012C334.176 114.344 338.778 113.771 339.713 114.641C340.536 115.407 340.346 117.322 339.463 117.567H339.459Z" fill="url(#paint22_linear_303_134)"/>
<path d="M338.562 113.191C338.562 113.191 337.33 114.167 336.184 113.423C336.184 113.423 335.572 117.713 334.961 119.447C334.349 121.182 332.569 125.73 332.569 125.73L341.161 126.143C341.578 122.219 340.307 117.674 338.567 113.195L338.562 113.191Z" fill="#96D1F1"/>
<path d="M338.894 112.812C338.894 112.812 342.703 119.142 341.553 125.644C341.553 125.644 341.846 126.948 337.192 126.548C332.543 126.147 332.307 125.493 332.307 125.493C333.948 122.055 335.288 118.135 336.085 113.38C336.085 113.38 337.826 113.526 338.89 112.816L338.894 112.812Z" fill="url(#paint23_linear_303_134)"/>
<path d="M328.498 106.602C328.11 106.688 327.77 107.373 327.852 108.207C327.929 108.982 328.45 109.408 328.842 109.347C329.725 109.205 329.092 106.469 328.498 106.602Z" fill="#E0BA90"/>
<path d="M329.359 107.05C329.532 107.08 329.678 107.532 329.635 108.13C329.596 108.681 329.359 109.025 329.183 109.012C328.791 108.982 329.092 107.003 329.359 107.05Z" fill="#E0BA90"/>
<path d="M336.637 113.298C336.637 113.298 336.356 117.085 335.361 121.151C334.362 125.218 333.017 127.864 333.017 127.864C333.017 127.864 341.074 128.747 342.574 126.819C343.927 125.085 340.962 114.912 339.2 112.627L336.637 113.298Z" fill="url(#paint24_linear_303_134)"/>
<path d="M333.879 140.235L333.983 139.379L333.741 136.053L333.767 136.062C333.767 136.062 334.288 136.182 334.573 135.593C334.784 135.158 334.754 134.827 334.719 134.681C334.702 134.642 334.693 134.612 334.698 134.599C334.758 134.401 335.133 134.341 335.533 134.461C335.667 134.5 335.783 134.556 335.878 134.62L336.434 134.792L334.62 140.717L334.056 140.545C333.927 140.506 333.845 140.373 333.875 140.239L333.879 140.235Z" fill="#0B0D3F"/>
<path d="M315.176 142.439L316.033 142.331L319.204 141.29V141.316C319.204 141.316 319.212 141.85 319.854 141.983C320.328 142.082 320.643 141.97 320.776 141.906C320.811 141.88 320.836 141.862 320.849 141.867C321.056 141.88 321.207 142.224 321.185 142.646C321.177 142.783 321.151 142.912 321.116 143.02L321.086 143.601L314.892 143.278L314.922 142.689C314.93 142.551 315.038 142.443 315.176 142.439Z" fill="#0B0D3F"/>
<path d="M337.037 115.691L336.481 124.426L337.128 123.733L330.898 124.895L330.333 124.998L330.506 126.1L331.079 126.031L337.369 125.252C337.714 125.209 337.977 124.934 338.011 124.603V124.564L338.963 115.863L339.067 114.903L337.098 114.735L337.037 115.699V115.691Z" fill="#E7C8AA"/>
<path d="M328.007 125.76C328.067 126.152 328.726 126.539 329.57 126.509C330.346 126.483 330.811 125.992 330.772 125.597C330.686 124.71 327.912 125.158 328.007 125.76Z" fill="#E7C8AA"/>
<path d="M328.511 124.934C328.549 124.766 329.015 124.646 329.605 124.732C330.152 124.809 330.484 125.067 330.458 125.239C330.406 125.627 328.446 125.196 328.506 124.934H328.511Z" fill="#E7C8AA"/>
<path d="M340.027 115.562C340.536 117.567 339.683 123.041 337.791 125.106C336.667 126.332 332.427 126.091 332.427 126.091L332.048 124.499C332.048 124.499 335.197 124.624 335.706 122.748C336.214 120.872 336.137 115.596 337.102 114.731C337.951 113.969 339.752 114.482 340.027 115.566V115.562Z" fill="url(#paint25_linear_303_134)"/>
<path d="M273.431 217.839L268.123 243.581C268.123 243.581 268.114 243.598 268.101 243.598H216.757C216.757 243.598 216.735 243.585 216.735 243.572L221.785 219.1C222.185 217.164 220.703 215.343 218.721 215.343C217.235 215.343 215.955 216.385 215.658 217.839L163.055 472.841C162.706 474.532 163.797 476.184 165.49 476.533C165.701 476.576 165.916 476.598 166.123 476.598C167.575 476.598 168.881 475.582 169.182 474.102L179.036 426.341C179.036 426.341 179.044 426.324 179.057 426.324H230.402C230.402 426.324 230.423 426.336 230.423 426.349L220.858 472.72C220.54 474.265 221.345 475.879 222.827 476.412C223.185 476.542 223.547 476.602 223.9 476.602C225.352 476.602 226.658 475.586 226.959 474.106L237.278 424.077C237.321 423.922 237.356 423.763 237.377 423.6L244.577 388.71C244.607 388.602 244.628 388.49 244.646 388.374L251.858 353.419C251.888 353.303 251.914 353.187 251.931 353.071L259.14 318.133C259.174 318.013 259.196 317.892 259.217 317.768L266.421 282.843C266.455 282.718 266.481 282.593 266.498 282.46L273.694 247.574C273.732 247.437 273.763 247.29 273.784 247.144L279.566 219.104C279.967 217.168 278.485 215.348 276.503 215.348C275.016 215.348 273.737 216.389 273.439 217.844L273.431 217.839ZM231.694 420.075H180.35C180.35 420.075 180.328 420.062 180.328 420.05L186.313 391.042C186.313 391.042 186.321 391.025 186.334 391.025H237.679C237.679 391.025 237.7 391.038 237.7 391.05L231.716 420.058C231.716 420.058 231.707 420.075 231.694 420.075ZM238.976 384.776H187.631C187.631 384.776 187.61 384.764 187.61 384.751L193.594 355.743C193.594 355.743 193.603 355.726 193.616 355.726H244.96C244.96 355.726 244.982 355.739 244.982 355.752L238.997 384.759C238.997 384.759 238.989 384.776 238.976 384.776ZM246.257 349.478H194.913C194.913 349.478 194.891 349.465 194.891 349.452L200.876 320.444C200.876 320.444 200.884 320.427 200.897 320.427H252.242C252.242 320.427 252.263 320.44 252.263 320.453L246.279 349.46C246.279 349.46 246.27 349.478 246.257 349.478ZM253.538 314.179H202.194C202.194 314.179 202.172 314.166 202.172 314.153L208.157 285.145C208.157 285.145 208.166 285.128 208.178 285.128H259.523C259.523 285.128 259.545 285.141 259.545 285.154L253.56 314.161C253.56 314.161 253.551 314.179 253.538 314.179ZM260.82 278.88H209.475C209.475 278.88 209.454 278.867 209.454 278.854L215.438 249.851C215.438 249.851 215.447 249.833 215.46 249.833H266.804C266.804 249.833 266.826 249.846 266.826 249.859L260.841 278.863C260.841 278.863 260.833 278.88 260.82 278.88Z" fill="url(#paint26_linear_303_134)"/>
<path d="M202.383 258.608L232.819 267.945L229.63 269.254L241.582 249.597L242.668 247.811L246.192 249.808L245.219 251.654L234.486 271.999C233.896 273.122 232.621 273.651 231.44 273.346L231.298 273.307L200.475 265.346L202.383 258.603V258.608Z" fill="#E0BA90"/>
<path d="M249.6 240.095C250.807 240.874 250.919 243.972 249.299 247.204C247.804 250.186 245.305 251.301 244.034 250.599C241.195 249.037 247.735 238.886 249.6 240.091V240.095Z" fill="#E0BA90"/>
<path d="M212.801 228.868C206.52 224.372 198.954 227.435 197.95 233.929C196.645 242.354 198.295 249.145 196.197 254.735C192.948 263.401 193.848 271.917 193.848 271.917C202.422 260.247 211.281 265.075 216.171 253.353C217.743 249.588 218.82 233.18 212.801 228.873V228.868Z" fill="#0B0D3F"/>
<path d="M210.298 257.261H202.797V242.927H207.381L210.298 257.261Z" fill="#E0BA90"/>
<path d="M215.839 235.672C217.106 241.554 216.171 247.488 212.616 248.771C209.281 249.975 203.491 246.787 200.845 240.969C198.058 234.845 199.419 230.271 204.357 228.567C209.605 226.755 214.452 229.221 215.843 235.667L215.839 235.672Z" fill="#E7C8AA"/>
<path d="M225.787 378.933L220.746 342.463L215.43 306.037L214.465 299.449L200.574 302.44L202.418 308.843L212.603 344.193L222.616 379.595L223.06 381.158L226.011 380.542L225.787 378.933Z" fill="#E0BA90"/>
<path d="M195.3 299.445L195.068 306.102L193.723 344.809L176.791 370.017L175.886 371.363L178.23 373.214L179.333 372.022L200.962 348.634C201.354 348.212 201.625 347.679 201.729 347.072L201.823 346.513L208.312 307.423L209.402 300.852L195.3 299.445Z" fill="#E0BA90"/>
<path d="M197.855 298.218H217.528L226.016 366.596L214.568 368.261L197.855 298.218Z" fill="#0B3038"/>
<path d="M192.452 298.218H211.354C211.354 298.218 207.89 341.926 205.072 347.059C201.69 353.217 188.303 367.512 188.303 367.512L179.212 360.498C179.212 360.498 188.79 346.956 191.104 340.6C193.417 334.244 192.452 298.218 192.452 298.218Z" fill="#2C616D"/>
<path d="M235.658 256.482L246.576 263.186C246.576 263.186 237.571 274.439 230.242 274.981C219.958 275.747 196.563 269.675 197.907 261.831C199.406 253.117 215.611 264.008 226.218 264.258C230.768 264.365 235.654 256.482 235.654 256.482H235.658Z" fill="url(#paint27_linear_303_134)"/>
<path d="M202.62 256.043C202.62 256.043 206.666 259.584 210.707 257.222C210.707 257.222 212.091 271.977 213.9 277.998C215.71 284.018 220.406 299.328 220.406 299.328L191.629 299.836C190.845 286.363 195.938 271.065 202.616 256.043H202.62Z" fill="#96D1F1"/>
<path d="M204.365 265.682C201.793 268.733 199.251 271.939 196.869 275.17C195.679 276.793 194.52 278.432 193.435 280.089C192.353 281.746 191.328 283.433 190.518 285.098C190.315 285.515 190.139 285.915 189.971 286.329L189.454 287.697C189.122 288.631 188.799 289.573 188.493 290.528C187.877 292.443 187.304 294.384 186.748 296.342C185.654 300.254 184.632 304.221 183.689 308.176L183.232 310.086L179.488 309.325L179.833 307.388C180.561 303.305 181.358 299.264 182.25 295.21C182.698 293.184 183.176 291.161 183.702 289.13C183.965 288.114 184.253 287.099 184.546 286.075L185.033 284.534C185.223 283.983 185.43 283.433 185.649 282.912C186.533 280.838 187.558 278.957 188.626 277.115C189.695 275.278 190.819 273.505 191.97 271.754C194.288 268.251 196.679 264.886 199.234 261.521L201.229 258.892L206.498 263.147L204.37 265.669L204.365 265.682Z" fill="#E7C8AA"/>
<path d="M201.604 254.322C201.604 254.322 187.554 275.312 190.414 297.698C190.414 297.698 189.208 302.095 205.15 301.497C221.095 300.899 222.004 298.7 222.004 298.7C216.959 286.686 213.038 273.088 211.087 256.714C211.087 256.714 205.124 256.934 201.599 254.322H201.604Z" fill="url(#paint28_linear_303_134)"/>
<path d="M191.427 300.447L179.096 299.389C179.096 299.389 182.465 285.842 185.908 278.402C190.233 269.051 197.515 255.303 204.633 258.892C213.93 263.582 195.455 280.274 193.28 285.459C191.517 289.651 191.431 300.443 191.431 300.443L191.427 300.447Z" fill="url(#paint29_linear_303_134)"/>
<path d="M176.899 320.16C175.684 319.566 175.412 316.287 176.812 312.522C178.105 309.054 180.47 307.38 181.741 307.883C184.585 308.998 178.777 321.081 176.899 320.16Z" fill="#E7C8AA"/>
<path d="M181.763 316.038C182.357 316.076 183.202 314.682 183.521 312.66C183.814 310.796 183.297 309.462 182.702 309.368C181.375 309.157 180.845 315.982 181.763 316.042V316.038Z" fill="#E7C8AA"/>
<path d="M237.308 382.457L234.986 382.044L226.503 378.765V378.834C226.503 378.834 226.399 380.284 224.637 380.559C223.34 380.762 222.496 380.417 222.142 380.219C222.056 380.142 221.987 380.099 221.948 380.099C221.38 380.099 220.923 381.024 220.923 382.164C220.923 382.539 220.975 382.892 221.061 383.193V384.776H237.963V383.171C237.963 382.797 237.679 382.487 237.308 382.457Z" fill="#0B3038"/>
<path d="M185.455 382.246L184.016 380.383L179.953 372.254L179.906 372.306C179.906 372.306 178.85 373.313 177.364 372.327C176.27 371.604 175.878 370.783 175.748 370.4C175.74 370.288 175.718 370.206 175.688 370.18C175.27 369.797 174.305 370.176 173.534 371.019C173.28 371.295 173.081 371.592 172.943 371.871L171.875 373.042L184.374 384.406L185.455 383.219C185.705 382.943 185.705 382.522 185.455 382.246Z" fill="#0B3038"/>
<path d="M206.059 226.966C204.353 226.966 203.185 227.117 201.733 227.87C199.398 229.079 196.317 231.967 195.705 238.507C195.137 244.609 197.58 247.591 192.362 253.349C186.494 257.799 176.033 257.041 177.239 267.029C178.445 277.016 191.711 275.713 194.861 270.721C198.015 265.725 197.657 261.275 199.411 258.126C201.164 254.976 204.206 256.822 205.731 253.349C207.515 250.079 204.417 242.75 203.861 241.49C204.236 240.259 204.719 238.912 206.709 238.37C210.988 237.204 214.538 233.159 214.538 231.855C214.538 230.551 210.626 226.971 206.059 226.971V226.966Z" fill="#0B0D3F"/>
<path d="M205.916 239.329C206.36 240.314 206.049 241.412 205.227 241.777C204.404 242.143 203.379 241.644 202.939 240.659C202.495 239.673 202.806 238.576 203.628 238.211C204.451 237.84 205.477 238.344 205.916 239.329Z" fill="#E7C8AA"/>
<path d="M245.055 241.997C244.435 241.881 243.366 243.245 242.767 245.337C242.216 247.264 242.59 248.74 243.207 248.912C244.581 249.304 246.016 242.174 245.055 241.997Z" fill="#E0BA90"/>
<path d="M377.731 392.466C375.891 392.466 374.19 393.069 372.819 394.089V378.937C372.819 376.609 370.928 374.72 368.597 374.72H325.034C322.703 374.72 320.811 376.609 320.811 378.937V422.446C320.811 424.774 322.703 426.664 325.034 426.664H340.204C339.183 425.295 338.58 423.595 338.58 421.758C338.58 417.214 342.268 413.535 346.813 413.535C351.359 413.535 355.047 417.218 355.047 421.758C355.047 423.595 354.444 425.295 353.422 426.664H372.815V407.295C374.185 408.315 375.887 408.917 377.727 408.917C382.277 408.917 385.96 405.234 385.96 400.694C385.96 396.154 382.272 392.471 377.727 392.471L377.731 392.466Z" fill="url(#paint30_linear_303_134)"/>
<path d="M338.58 421.754C338.58 423.591 339.183 425.291 340.204 426.659H325.034C322.703 426.659 320.811 428.548 320.811 430.876V474.386C320.811 476.714 322.703 478.603 325.034 478.603H368.597C370.928 478.603 372.819 476.714 372.819 474.386V459.234C371.449 460.254 369.747 460.856 367.908 460.856C363.358 460.856 359.674 457.173 359.674 452.633C359.674 448.093 363.362 444.41 367.908 444.41C369.747 444.41 371.449 445.012 372.819 446.032V426.664H353.427C354.448 425.295 355.051 423.595 355.051 421.758C355.051 417.214 351.363 413.535 346.818 413.535C342.272 413.535 338.584 417.218 338.584 421.758L338.58 421.754Z" fill="url(#paint31_linear_303_134)"/>
<path d="M367.908 460.856C369.747 460.856 371.449 460.254 372.819 459.234V474.386C372.819 476.714 374.711 478.603 377.042 478.603H420.605C422.936 478.603 424.827 476.714 424.827 474.386V430.876C424.827 428.548 422.936 426.659 420.605 426.659H405.435C406.456 428.028 407.059 429.727 407.059 431.565C407.059 436.109 403.371 439.788 398.826 439.788C394.28 439.788 390.592 436.105 390.592 431.565C390.592 429.727 391.195 428.028 392.216 426.659H372.824V446.028C371.454 445.008 369.752 444.405 367.912 444.405C363.362 444.405 359.678 448.089 359.678 452.629C359.678 457.169 363.367 460.852 367.912 460.852L367.908 460.856Z" fill="url(#paint32_linear_303_134)"/>
<path d="M481.907 355.024H490.157V339.266H485.116L481.907 355.024Z" fill="#E0BA90"/>
<path d="M475.819 331.292C474.423 337.76 475.457 344.284 479.365 345.695C483.031 347.02 489.395 343.513 492.307 337.119C495.371 330.389 493.876 325.354 488.447 323.482C482.678 321.494 477.348 324.201 475.819 331.292Z" fill="#E7C8AA"/>
<path d="M487.322 321.193C493.32 321.662 496.637 327.092 496.25 332.463C495.892 337.476 490.524 340.153 490.524 340.153C490.524 340.153 488.753 335.062 485.853 334.253C481.803 333.121 483.557 329.507 481.665 329.119C479.696 328.71 475.409 327.148 475.478 324.283C478.253 324.381 480.588 320.668 487.322 321.193Z" fill="#0B0D3F"/>
<path d="M486.728 335.311C486.241 336.396 486.581 337.6 487.482 338.005C488.386 338.409 489.511 337.858 489.997 336.778C490.484 335.694 490.144 334.49 489.244 334.085C488.339 333.681 487.214 334.231 486.728 335.311Z" fill="#E7C8AA"/>
<path d="M487.322 334.154C487.322 334.154 486.87 341.147 485.534 343.802C484.371 346.112 479.291 348.501 476.521 343.014C476.521 343.014 479.321 343.599 479.007 342.412C478.632 341.018 475.75 341 475.75 341C475.75 341 475.185 340.974 475.086 340.454C474.935 339.684 475.31 338.44 475.31 338.44C475.31 338.44 479.128 339.8 480.769 339.8C482.635 339.8 484.324 338.487 485.901 334.154H487.322Z" fill="#0B0D3F"/>
<path d="M463.234 488.281L470.812 445.929L475.961 425.063L481.144 404.154L482.906 397.045L497.775 401.783L495.086 408.595L487.253 428.445C484.651 435.072 482.001 441.694 479.425 448.347L466.689 489.124L466.159 490.824L462.919 490.032L463.234 488.276V488.281Z" fill="#E0BA90"/>
<path d="M490.627 397.221L491.217 404.519L494.574 445.873L525.884 460.529L527.499 461.287L526.319 464.368L524.608 463.852L488.71 453.012C487.383 452.607 486.31 451.519 486 450.068L485.875 449.47L476.745 406.637L475.22 399.476L490.636 397.221H490.627Z" fill="#E0BA90"/>
<path d="M499.959 392.707L472.165 398.099L463.475 481.064L472.798 482.338L499.959 392.707Z" fill="#0B3038"/>
<path d="M501.321 398.241L473.281 394.329C473.281 394.329 477.581 446.273 485.97 452.896C490.636 456.579 516.569 462.784 516.569 462.784L519.36 454.832C519.36 454.832 499.839 446.94 498.206 444.5C496.431 441.845 501.325 398.245 501.325 398.245L501.321 398.241Z" fill="#2C616D"/>
<path d="M485.224 356.208L466.12 381.919L469.489 381.08L448.05 372.259L446.103 371.458L444.435 375.176L446.331 376.093L467.193 386.201C468.343 386.756 469.692 386.429 470.467 385.478L470.562 385.362L490.808 360.537L485.228 356.203L485.224 356.208Z" fill="#E0BA90"/>
<path d="M494.647 361.75C491.747 368.743 478.576 384.084 468.662 386.657C462.772 388.189 450.36 378.959 450.36 378.959L452.363 373.317C452.363 373.317 461.786 379.957 467.081 375.206C472.38 370.456 481.963 355.042 486.642 354.306C490.765 353.656 495.948 358.613 494.647 361.75Z" fill="url(#paint33_linear_303_134)"/>
<path d="M489.593 351.694C489.593 351.694 485.267 355.48 480.941 352.955C480.941 352.955 479.459 368.739 477.525 375.18C475.59 381.622 470.049 398.086 470.049 398.086L501.347 398.547C502.187 384.135 496.736 367.766 489.593 351.694Z" fill="#D3C4AE"/>
<path d="M491.088 350.398C491.088 350.398 502.635 372.818 503.061 396.804C503.135 400.87 501.355 402.032 487.297 400.866C470.287 399.459 469.261 397.871 469.261 397.871C474.66 385.017 478.856 370.468 480.937 352.955C480.937 352.955 487.314 353.187 491.088 350.398Z" fill="url(#paint34_linear_303_134)"/>
<path d="M486.978 362.731C489.455 366.208 491.881 369.849 494.143 373.502C495.272 375.335 496.362 377.186 497.374 379.049C498.382 380.908 499.326 382.801 500.045 384.647C500.222 385.112 500.377 385.551 500.519 386.007L500.954 387.513C501.226 388.537 501.489 389.57 501.734 390.616C502.221 392.711 502.665 394.833 503.087 396.967C503.914 401.236 504.655 405.556 505.31 409.851L505.629 411.929L509.688 411.443L509.49 409.352C509.072 404.933 508.572 400.556 507.982 396.158C507.68 393.959 507.348 391.76 506.965 389.549C506.775 388.443 506.555 387.333 506.331 386.218L505.948 384.531C505.797 383.929 505.621 383.322 505.431 382.75C504.668 380.46 503.742 378.365 502.764 376.308C501.782 374.26 500.743 372.263 499.666 370.296C497.503 366.359 495.246 362.563 492.82 358.751L490.924 355.773L484.935 359.848L486.982 362.723L486.978 362.731Z" fill="#E7C8AA"/>
<path d="M493.69 354.887C499.584 359.642 503.815 371.303 507.047 381.015C510.278 390.728 509.83 405.978 509.83 405.978L503.665 406.83C503.665 406.83 501.868 391.52 498.804 385.099C495.741 378.679 483.651 365.137 484.268 360.442C484.81 356.307 491.036 352.744 493.686 354.882L493.69 354.887Z" fill="url(#paint35_linear_303_134)"/>
<path d="M436.715 369.672C436.198 371.023 437.775 373.524 440.765 375.077C443.522 376.51 446.051 375.86 446.663 374.531C448.02 371.566 437.516 367.581 436.715 369.668V369.672Z" fill="#E0BA90"/>
<path d="M508.869 423.931C510.295 423.686 511.562 420.398 511.256 416.116C510.976 412.17 509.05 409.739 507.594 409.873C504.341 410.165 506.663 424.314 508.869 423.931Z" fill="#E7C8AA"/>
<path d="M505.112 418.242C504.492 418.1 504.044 416.418 504.328 414.245C504.587 412.239 505.521 411.026 506.159 411.108C507.585 411.293 506.073 418.457 505.112 418.238V418.242Z" fill="#E7C8AA"/>
<path d="M450.816 492.928C450.816 492.928 452.962 492.364 453.552 492.149C455.922 491.297 462.062 488.788 462.062 488.788C462.062 488.788 462.82 490.006 464.711 490.243C466.107 490.415 467.137 489.916 467.176 489.911C467.783 489.894 468.305 490.871 468.339 492.093C468.352 492.493 468.309 492.872 468.227 493.199L468.279 494.895L450.187 495.437L450.136 493.715C450.123 493.315 450.42 492.975 450.816 492.928Z" fill="#0B3038"/>
<path d="M525.177 476.98C525.177 476.98 525.259 474.769 525.229 474.136C525.104 471.623 524.488 465.026 524.488 465.026C524.488 465.026 525.875 464.656 526.655 462.918C527.228 461.635 527.047 460.508 527.055 460.465C527.215 459.88 528.301 459.664 529.481 459.987C529.869 460.09 530.218 460.241 530.507 460.418L532.148 460.865L527.396 478.306L525.733 477.854C525.349 477.751 525.108 477.368 525.177 476.976V476.98Z" fill="#0B3038"/>
<path d="M414.634 399.029C415.202 397.277 415.151 395.478 414.603 393.86L429.033 398.538C431.251 399.257 433.634 398.043 434.354 395.827L447.796 354.443C448.516 352.227 447.301 349.848 445.082 349.129L403.647 335.703C401.428 334.984 399.045 336.198 398.326 338.414L393.642 352.825C395.262 352.279 397.063 352.227 398.817 352.795C403.143 354.198 405.512 358.837 404.108 363.157C402.703 367.478 398.059 369.844 393.733 368.442C391.984 367.874 390.549 366.776 389.562 365.382L383.578 383.808L402.027 389.785C400.631 390.775 399.532 392.204 398.963 393.951C397.559 398.271 399.929 402.91 404.254 404.313C408.58 405.716 413.225 403.349 414.629 399.029H414.634Z" fill="url(#paint36_linear_303_134)"/>
<path d="M440.691 368.166C441.126 367.702 442.807 368.166 444.538 369.513C446.137 370.752 446.714 372.168 446.317 372.675C445.439 373.811 440.015 368.885 440.687 368.166H440.691Z" fill="#E0BA90"/>
<defs>
<linearGradient id="paint0_linear_303_134" x1="-6.39855e-06" y1="253.039" x2="617" y2="253.039" gradientUnits="userSpaceOnUse">
<stop stop-color="#F6E0E2"/>
<stop offset="1" stop-color="#A7B6E7"/>
</linearGradient>
<linearGradient id="paint1_linear_303_134" x1="662.726" y1="216.66" x2="300.881" y2="318.475" gradientUnits="userSpaceOnUse">
<stop stop-color="#F6E0E2"/>
<stop offset="1" stop-color="#A7B6E7"/>
</linearGradient>
<linearGradient id="paint2_linear_303_134" x1="5.83704" y1="278.441" x2="313.881" y2="264.342" gradientUnits="userSpaceOnUse">
<stop stop-color="#F6E0E2"/>
<stop offset="1" stop-color="#A7B6E7"/>
</linearGradient>
<linearGradient id="paint3_linear_303_134" x1="155.235" y1="384.694" x2="562.81" y2="402.06" gradientUnits="userSpaceOnUse">
<stop stop-color="#F6E0E2"/>
<stop offset="1" stop-color="#A7B6E7"/>
</linearGradient>
<linearGradient id="paint4_linear_303_134" x1="66.0882" y1="278.751" x2="327.685" y2="419.459" gradientUnits="userSpaceOnUse">
<stop offset="0.46" stop-color="#A6B5E6"/>
<stop offset="1" stop-color="#BAC5EB"/>
</linearGradient>
<linearGradient id="paint5_linear_303_134" x1="65.8218" y1="349.923" x2="375.65" y2="428.862" gradientUnits="userSpaceOnUse">
<stop stop-color="#F6E0E2"/>
<stop offset="1" stop-color="#A7B6E7"/>
</linearGradient>
<linearGradient id="paint6_linear_303_134" x1="236.292" y1="343.545" x2="351.518" y2="343.545" gradientUnits="userSpaceOnUse">
<stop stop-color="#66C5D6"/>
<stop offset="1" stop-color="#042C33"/>
</linearGradient>
<linearGradient id="paint7_linear_303_134" x1="184.301" y1="205.489" x2="462.863" y2="205.489" gradientUnits="userSpaceOnUse">
<stop stop-color="#66C5D6"/>
<stop offset="1" stop-color="#042C33"/>
</linearGradient>
<linearGradient id="paint8_linear_303_134" x1="278.236" y1="187.229" x2="273.051" y2="189.545" gradientUnits="userSpaceOnUse">
<stop stop-color="#4C5ABD"/>
<stop offset="1" stop-color="#1D299F"/>
</linearGradient>
<linearGradient id="paint9_linear_303_134" x1="276.537" y1="186.725" x2="258.668" y2="188.04" gradientUnits="userSpaceOnUse">
<stop stop-color="#4C5ABD"/>
<stop offset="1" stop-color="#1D299F"/>
</linearGradient>
<linearGradient id="paint10_linear_303_134" x1="265.556" y1="162.602" x2="265.273" y2="167.475" gradientUnits="userSpaceOnUse">
<stop stop-color="#4C5ABD"/>
<stop offset="1" stop-color="#1D299F"/>
</linearGradient>
<linearGradient id="paint11_linear_303_134" x1="265.472" y1="173.374" x2="256.071" y2="172.73" gradientUnits="userSpaceOnUse">
<stop stop-color="#EEBFC0"/>
<stop offset="1" stop-color="#E5938D"/>
</linearGradient>
<linearGradient id="paint12_linear_303_134" x1="265.522" y1="176.052" x2="253.791" y2="172.274" gradientUnits="userSpaceOnUse">
<stop stop-color="#7F8DD4"/>
<stop offset="1" stop-color="#4C5ABD"/>
</linearGradient>
<linearGradient id="paint13_linear_303_134" x1="263.902" y1="174.17" x2="257.072" y2="174.65" gradientUnits="userSpaceOnUse">
<stop stop-color="#4C5ABD"/>
<stop offset="1" stop-color="#1D299F"/>
</linearGradient>
<linearGradient id="paint14_linear_303_134" x1="278.962" y1="104.002" x2="277.994" y2="105.86" gradientUnits="userSpaceOnUse">
<stop stop-color="#4C5ABD"/>
<stop offset="1" stop-color="#1D299F"/>
</linearGradient>
<linearGradient id="paint15_linear_303_134" x1="278.355" y1="104.246" x2="273.484" y2="108.719" gradientUnits="userSpaceOnUse">
<stop stop-color="#4C5ABD"/>
<stop offset="1" stop-color="#1D299F"/>
</linearGradient>
<linearGradient id="paint16_linear_303_134" x1="269.788" y1="99.6151" x2="270.823" y2="101.091" gradientUnits="userSpaceOnUse">
<stop stop-color="#4C5ABD"/>
<stop offset="1" stop-color="#1D299F"/>
</linearGradient>
<linearGradient id="paint17_linear_303_134" x1="272.093" y1="102.907" x2="269.223" y2="104.877" gradientUnits="userSpaceOnUse">
<stop stop-color="#EEBFC0"/>
<stop offset="1" stop-color="#E5938D"/>
</linearGradient>
<linearGradient id="paint18_linear_303_134" x1="272.718" y1="103.672" x2="268.458" y2="105.267" gradientUnits="userSpaceOnUse">
<stop stop-color="#7F8DD4"/>
<stop offset="1" stop-color="#4C5ABD"/>
</linearGradient>
<linearGradient id="paint19_linear_303_134" x1="271.817" y1="103.5" x2="269.955" y2="105.199" gradientUnits="userSpaceOnUse">
<stop stop-color="#4C5ABD"/>
<stop offset="1" stop-color="#1D299F"/>
</linearGradient>
<linearGradient id="paint20_linear_303_134" x1="321.949" y1="127.666" x2="325.47" y2="130.089" gradientUnits="userSpaceOnUse">
<stop stop-color="#4C5ABD"/>
<stop offset="1" stop-color="#1D299F"/>
</linearGradient>
<linearGradient id="paint21_linear_303_134" x1="323.276" y1="127.524" x2="336.329" y2="130.936" gradientUnits="userSpaceOnUse">
<stop stop-color="#4C5ABD"/>
<stop offset="1" stop-color="#1D299F"/>
</linearGradient>
<linearGradient id="paint22_linear_303_134" x1="334.697" y1="111.158" x2="334.243" y2="114.807" gradientUnits="userSpaceOnUse">
<stop stop-color="#4C5ABD"/>
<stop offset="1" stop-color="#1D299F"/>
</linearGradient>
<linearGradient id="paint23_linear_303_134" x1="333.289" y1="119.142" x2="340.337" y2="119.953" gradientUnits="userSpaceOnUse">
<stop stop-color="#EEBFC0"/>
<stop offset="1" stop-color="#E5938D"/>
</linearGradient>
<linearGradient id="paint24_linear_303_134" x1="332.888" y1="121.117" x2="342.091" y2="119.922" gradientUnits="userSpaceOnUse">
<stop stop-color="#7F8DD4"/>
<stop offset="1" stop-color="#4C5ABD"/>
</linearGradient>
<linearGradient id="paint25_linear_303_134" x1="334.344" y1="119.951" x2="339.333" y2="121.236" gradientUnits="userSpaceOnUse">
<stop stop-color="#4C5ABD"/>
<stop offset="1" stop-color="#1D299F"/>
</linearGradient>
<linearGradient id="paint26_linear_303_134" x1="162.991" y1="345.974" x2="279.632" y2="345.974" gradientUnits="userSpaceOnUse">
<stop stop-color="#66C5D6"/>
<stop offset="1" stop-color="#042C33"/>
</linearGradient>
<linearGradient id="paint27_linear_303_134" x1="244.14" y1="267.039" x2="212.14" y2="247.173" gradientUnits="userSpaceOnUse">
<stop stop-color="#68E4FF"/>
<stop offset="1" stop-color="#A0CED8"/>
</linearGradient>
<linearGradient id="paint28_linear_303_134" x1="220.406" y1="281.182" x2="192.041" y2="276.64" gradientUnits="userSpaceOnUse">
<stop stop-color="#68E4FF"/>
<stop offset="1" stop-color="#A0CED8"/>
</linearGradient>
<linearGradient id="paint29_linear_303_134" x1="205.825" y1="282.272" x2="180.848" y2="278.328" gradientUnits="userSpaceOnUse">
<stop stop-color="#68E4FF"/>
<stop offset="1" stop-color="#A0CED8"/>
</linearGradient>
<linearGradient id="paint30_linear_303_134" x1="382.703" y1="404.26" x2="328.221" y2="388.096" gradientUnits="userSpaceOnUse">
<stop stop-color="#68E4FF"/>
<stop offset="1" stop-color="#A0CED8"/>
</linearGradient>
<linearGradient id="paint31_linear_303_134" x1="346.818" y1="409.055" x2="346.818" y2="478.233" gradientUnits="userSpaceOnUse">
<stop offset="0.46" stop-color="#A6B5E6"/>
<stop offset="1" stop-color="#BAC5EB"/>
</linearGradient>
<linearGradient id="paint32_linear_303_134" x1="359.679" y1="452.631" x2="424.827" y2="452.631" gradientUnits="userSpaceOnUse">
<stop stop-color="#66C5D6"/>
<stop offset="1" stop-color="#042C33"/>
</linearGradient>
<linearGradient id="paint33_linear_303_134" x1="450.36" y1="370.538" x2="494.851" y2="370.538" gradientUnits="userSpaceOnUse">
<stop stop-color="#66C5D6"/>
<stop offset="1" stop-color="#042C33"/>
</linearGradient>
<linearGradient id="paint34_linear_303_134" x1="469.261" y1="375.847" x2="503.063" y2="375.847" gradientUnits="userSpaceOnUse">
<stop stop-color="#66C5D6"/>
<stop offset="1" stop-color="#042C33"/>
</linearGradient>
<linearGradient id="paint35_linear_303_134" x1="484.245" y1="380.536" x2="509.851" y2="380.536" gradientUnits="userSpaceOnUse">
<stop stop-color="#66C5D6"/>
<stop offset="1" stop-color="#042C33"/>
</linearGradient>
<linearGradient id="paint36_linear_303_134" x1="403.879" y1="405.556" x2="425.232" y2="339.522" gradientUnits="userSpaceOnUse">
<stop stop-color="#F6E0E2"/>
<stop offset="1" stop-color="#EEBFC0"/>
</linearGradient>
</defs>
</svg>
