<svg xmlns="http://www.w3.org/2000/svg">

  <symbol viewBox="0 0 60 60" id="bmw_logo" >
    <g opacity="0.9" clip-path="url(#clip0_7_18)">
      <path fill-rule="evenodd" clip-rule="evenodd" d="M30 1.84376C14.4498 1.84376 1.84382 14.4497 1.84382 29.9999C1.84382 45.5502 14.4498 58.1561 30 58.1561C45.5502 58.1561 58.1562 45.5502 58.1562 29.9999C58.1562 14.4497 45.5502 1.84376 30 1.84376ZM0 29.9999C0 13.4314 13.4315 -6.10352e-05 30 -6.10352e-05C46.5685 -6.10352e-05 60 13.4314 60 29.9999C60 46.5685 46.5685 59.9999 30 59.9999C13.4315 59.9999 0 46.5685 0 29.9999Z" fill="#6F6E6F"/>
      <path d="M12.2207 30.0022C12.2207 20.1823 20.1809 12.2223 30.0011 12.2219C39.8207 12.2223 47.7805 20.182 47.7809 30.0022C47.7805 39.8218 39.8207 47.7816 30.0011 47.7822C20.1809 47.7816 12.2207 39.8218 12.2207 30.0022ZM18.1379 18.1395C15.1012 21.1771 13.2248 25.3679 13.2244 30.0022C13.2248 34.6364 15.1012 38.8274 18.1379 41.8648C21.1755 44.9011 25.3663 46.7779 30.0011 46.7783C34.6348 46.7779 38.8256 44.9011 41.8632 41.8648C44.8998 38.8274 46.7764 34.6364 46.7768 30.0022C46.7764 25.3679 44.8998 21.1771 41.8632 18.1395C38.8256 15.1027 34.6348 13.2263 30.0011 13.2259C25.3663 13.2263 21.1755 15.1027 18.1379 18.1395Z" fill="#6F6E6F"/>
      <path d="M12.228 30.0012H30.0096V12.2219H30.0084C20.1886 12.2223 12.2286 20.1816 12.228 30.0012Z" fill="#6F6E6F"/>
      <path d="M47.7771 29.9922H29.9955V47.7832H29.9967C39.8163 47.7828 47.7765 39.8118 47.7771 29.9922Z" fill="#6F6E6F"/>
      <path d="M50.6033 13.5597L46.6409 16.181L48.5159 12.5341C48.0285 11.9582 47.2905 11.3528 47.2905 11.3528L43.6734 13.169L46.3276 9.27708C45.887 8.90709 45.3771 8.59938 44.888 8.22836L41.1729 14.0231C41.1729 14.0231 41.8765 14.4369 42.7373 15.2318L46.5821 13.2429L44.5682 17.0271C45.0212 17.5054 45.4244 18.085 45.844 18.6023L51.6958 14.9829C51.6956 14.9829 51.3375 14.4199 50.6033 13.5597ZM30.4124 9.60856L32.1954 5.66872L32.3566 10.6634C33.0747 10.6954 34.134 10.9656 34.134 10.9656L33.814 3.89128C32.4695 3.69583 31.3966 3.64236 31.3966 3.64236L29.6788 7.91573L28.0013 3.67678C28.0013 3.67678 26.8934 3.78475 25.5486 3.97999L25.2267 11.1088C25.2267 11.1088 26.2882 10.8017 27.0062 10.77L27.1578 5.69884L28.9453 9.60836H30.4124V9.60856ZM15.3224 11.9248L15.3226 11.9176C15.409 11.6 15.406 11.2646 15.3137 10.9487C15.2213 10.6327 15.0434 10.3484 14.7995 10.1273C14.0761 9.46741 12.9985 9.44508 11.8486 10.5928C11.8486 10.5928 9.72902 12.7181 8.29309 14.7995L13.4499 19.5023L17.3362 15.1454C18.1817 14.2114 18.2147 12.8885 17.4413 12.1827C16.863 11.6562 16.0246 11.5814 15.3224 11.9248ZM10.3481 14.4525C12.1749 12.1895 12.9063 11.571 12.9063 11.571C13.3853 11.1566 13.7395 11.1203 14.027 11.3823C14.3146 11.6441 14.2783 12.1534 13.9465 12.5193L11.3645 15.3789L10.3481 14.4525ZM16.1533 14.2624L13.4417 17.2729L12.4224 16.3436L15.1343 13.3333C15.4658 12.9672 15.9632 12.8779 16.2447 13.1346C16.5262 13.3913 16.485 13.8965 16.1533 14.2624Z" fill="#6F6E6F"/>
    </g>
    <defs>
      <clipPath id="clip0_7_18">
        <rect width="60" height="60" fill="white"/>
      </clipPath>
    </defs>
  </symbol>

  <symbol viewBox="0 0 72 72" id="like_icon" >
    <path d="M17 33.2426H24.2106V50.548H17V33.2426ZM52.4541 28.556H42.2367L42.3594 24.5182L43.4408 19.3266L41.8761 15H38.3936L37.6723 21.3671L34.067 26.8977L32.7477 33.9855H29.0197V50.548L37.795 51.0529H48.0702L51.8555 48.349L55.1001 34.721L52.4541 28.556Z" fill="currentColor"/>
  </symbol>

  <symbol viewBox="0 0 44 44" id="ok_icon" >
    <path d="M20.5256 28.1226C18.2032 27.8804 16.1092 27.3084 14.3164 25.9062C14.094 25.7318 13.8643 25.5636 13.6613 25.3688C12.8766 24.6151 12.7975 23.752 13.4185 22.8625C13.9496 22.1013 14.8413 21.8977 15.7682 22.3348C15.9476 22.4195 16.1186 22.5252 16.2824 22.6388C19.6236 24.9345 24.2135 24.9979 27.5672 22.742C27.8995 22.4872 28.2546 22.2795 28.6663 22.1735C29.4667 21.968 30.2131 22.262 30.6426 22.9623C31.1333 23.762 31.127 24.5426 30.5224 25.1636C29.595 26.1155 28.4796 26.8042 27.2403 27.2848C26.0684 27.7392 24.7848 27.9679 23.5144 28.1197C23.7061 28.3284 23.7965 28.431 23.9164 28.5515C25.6414 30.2847 27.3739 32.0106 29.0933 33.7491C29.6791 34.3415 29.8014 35.076 29.4789 35.765C29.1262 36.518 28.3368 37.0134 27.5628 36.9604C27.0724 36.9265 26.6899 36.6824 26.3501 36.3401C25.0484 35.0302 23.7221 33.7444 22.4467 32.4097C22.0756 32.0216 21.897 32.095 21.5695 32.432C20.2599 33.7802 18.9289 35.1077 17.5901 36.4276C16.989 37.0203 16.2736 37.127 15.5765 36.7885C14.8354 36.4292 14.3638 35.6727 14.4002 34.9125C14.4253 34.3983 14.6782 34.0055 15.0312 33.6531C16.7383 31.9485 18.4407 30.2395 20.1438 28.532C20.2564 28.4184 20.3615 28.298 20.5256 28.1226Z" fill="currentColor"/>
    <path d="M21.9402 22.1847C17.7971 22.1706 14.3998 18.736 14.424 14.5863C14.4478 10.3907 17.8473 7.00972 22.0312 7.02133C26.2236 7.03263 29.5886 10.4623 29.5676 14.7014C29.5463 18.8426 26.1254 22.1992 21.9402 22.1847ZM25.7056 14.5963C25.6984 12.5359 24.0575 10.8956 22.0011 10.8937C19.9275 10.8915 18.2718 12.5616 18.2878 14.6408C18.3032 16.6934 19.9583 18.3221 22.0203 18.3146C24.076 18.3074 25.7125 16.6564 25.7056 14.5963Z" fill="currentColor"/>
  </symbol>

  <symbol viewBox="0 0 44 44" id="vk_icon" >
    <path d="M34.952 15.1203C35.1417 14.4985 34.952 14.0425 34.0551 14.0425H31.0839C30.3279 14.0425 29.9824 14.437 29.7928 14.8702C29.7928 14.8702 28.2821 18.506 26.1415 20.8634C25.4505 21.5494 25.1348 21.766 24.7582 21.766C24.5698 21.766 24.2962 21.5494 24.2962 20.9276V15.1203C24.2962 14.3742 24.078 14.0425 23.448 14.0425H18.7792C18.3078 14.0425 18.0232 14.3875 18.0232 14.7165C18.0232 15.4225 19.0936 15.5856 19.2033 17.5753V21.8917C19.2033 22.8371 19.0312 23.0095 18.6519 23.0095C17.6452 23.0095 15.1957 19.3604 13.7419 15.1831C13.4588 14.3715 13.1729 14.0439 12.4142 14.0439H9.44438C8.59489 14.0439 8.42554 14.4383 8.42554 14.8716C8.42554 15.6498 9.43219 19.5008 13.1146 24.5941C15.5696 28.072 19.0258 29.9574 22.1745 29.9574C24.0618 29.9574 24.2948 29.5389 24.2948 28.8168V26.188C24.2948 25.3509 24.475 25.1824 25.0725 25.1824C25.5115 25.1824 26.2675 25.4017 28.0301 27.0772C30.0434 29.0642 30.3767 29.9561 31.508 29.9561H34.4778C35.3259 29.9561 35.75 29.5376 35.5061 28.7112C35.2392 27.8888 34.2773 26.6921 33.001 25.276C32.3073 24.4684 31.2709 23.5992 30.9552 23.1647C30.5149 22.6044 30.6422 22.357 30.9552 21.8596C30.9566 21.8609 34.5754 16.8305 34.952 15.1203Z" fill="currentColor"/>
  </symbol>

  <symbol viewBox="0 0 44 44" id="fb_icon" >
    <path d="M16.4662 22.763H19.0317V33.3246C19.0317 33.5331 19.2007 33.7021 19.4092 33.7021H23.7591C23.9676 33.7021 24.1366 33.5331 24.1366 33.3246V22.8127H27.0858C27.2776 22.8127 27.4389 22.6688 27.4608 22.4783L27.9087 18.5901C27.921 18.4831 27.8871 18.3759 27.8156 18.2957C27.7439 18.2154 27.6414 18.1694 27.5338 18.1694H24.1367V15.732C24.1367 14.9973 24.5323 14.6247 25.3127 14.6247C25.4239 14.6247 27.5338 14.6247 27.5338 14.6247C27.7423 14.6247 27.9113 14.4557 27.9113 14.2472V10.6781C27.9113 10.4696 27.7423 10.3006 27.5338 10.3006H24.4728C24.4512 10.2996 24.4032 10.2979 24.3326 10.2979C23.8014 10.2979 21.9553 10.4021 20.497 11.7437C18.8812 13.2304 19.1058 15.0105 19.1595 15.3191V18.1693H16.4662C16.2577 18.1693 16.0887 18.3383 16.0887 18.5468V22.3854C16.0887 22.5939 16.2577 22.763 16.4662 22.763Z" fill="currentColor"/>
  </symbol>

</svg>